<?xml version="1.0" standalone="no"?>
<!DOCTYPE svg PUBLIC "-//W3C//DTD SVG 20010904//EN"
 "http://www.w3.org/TR/2001/REC-SVG-20010904/DTD/svg10.dtd">
<svg version="1.0" xmlns="http://www.w3.org/2000/svg"
 width="78.000000pt" height="78.000000pt" viewBox="0 0 78.000000 78.000000"
 preserveAspectRatio="xMidYMid meet">
<metadata>
Created by potrace 1.14, written by Peter Selinger 2001-2017
</metadata>
<g transform="translate(0.000000,78.000000) scale(0.100000,-0.100000)"
fill="#000000" stroke="none">
<path d="M589 732 l-44 -49 31 -44 c48 -68 66 -125 72 -225 6 -109 -18 -203
-69 -273 -31 -43 -31 -43 -11 -65 11 -11 31 -34 45 -49 l26 -29 32 44 c76 104
111 226 105 369 -6 119 -12 147 -49 229 -18 38 -84 140 -91 140 -1 0 -22 -22
-47 -48z"/>
<path d="M441 606 l-43 -44 28 -47 c45 -78 39 -210 -13 -267 -16 -18 -14 -22
33 -69 l51 -50 27 42 c87 130 87 311 1 440 -14 22 -29 39 -33 39 -4 0 -27 -20
-51 -44z"/>
<path d="M22 560 c-17 -16 -22 -32 -22 -69 l0 -48 113 -1 c162 0 156 1 169
-27 9 -19 8 -29 -5 -48 -15 -23 -21 -24 -129 -24 -62 -1 -121 -1 -130 -2 -16
-1 -18 -14 -18 -129 0 -115 2 -130 20 -150 26 -27 54 -28 80 -2 21 21 22 27
22 102 l-1 46 92 4 c79 3 97 6 125 27 89 67 96 216 15 294 -40 38 -80 47 -204
47 -92 0 -108 -3 -127 -20z"/>
</g>
</svg>
